<svg xmlns="http://www.w3.org/2000/svg" xmlns:xlink="http://www.w3.org/1999/xlink"
    style="margin:auto;background:#ffffff;display:block;z-index:1;position:relative" width="1844"
    height="1013" preserveAspectRatio="xMidYMid" viewBox="0 0 1844 1013">
    <g transform="translate(922,506.5) scale(-1,-1) translate(-922,-506.5)">
        <g transform="translate(956.7357154036163,-45.608386166519836) scale(100)" opacity="0.4">
            <path
                d="M5.532 0 C5.532 0.2212800000000002 2.9576341013494214 4.6802125337355145 2.7660000000000005 4.790852533735515 S-2.5743658986505777 4.901492533735515 -2.7659999999999987 4.790852533735515 S-5.532 0.22128000000000086 -5.532 6.774746092883158e-16 S-2.957634101349423 -4.680212533735513 -2.7660000000000027 -4.790852533735513 S2.5743658986505755 -4.901492533735517 2.7659999999999965 -4.790852533735517 S5.532 -0.22128000000000156 5.532 -1.3549492185766316e-15"
                fill="#ff00ff" stroke-width="0">
                <animateTransform attributeName="transform" type="rotate" dur="10s"
                    repeatCount="indefinite" values="0;120"></animateTransform>
            </path>
        </g>
        <g transform="translate(963.6828584843395,-156.0300633998238) scale(100)" opacity="0.4">
            <path
                d="M6.638400000000001 0 C6.638400000000001 0.26553600000000027 3.5491609216193063 5.616255040482617 3.3192000000000013 5.7490230404826175 S-3.089239078380694 5.881791040482619 -3.319199999999999 5.749023040482618 S-6.638400000000001 0.2655360000000011 -6.638400000000001 8.129695311459791e-16 S-3.5491609216193085 -5.616255040482616 -3.3192000000000035 -5.749023040482617 S3.089239078380691 -5.881791040482621 3.319199999999996 -5.749023040482621 S6.638400000000001 -0.2655360000000019 6.638400000000001 -1.6259390622919582e-15"
                fill="#00c6ff" stroke-width="0">
                <animateTransform attributeName="transform" type="rotate" dur="5s"
                    repeatCount="indefinite" values="0;120"></animateTransform>
            </path>
        </g>
        <g transform="translate(980.3560018780753,-421.04208875975326) scale(100)" opacity="0.4">
            <path
                d="M9.293759999999999 0 C9.293759999999999 0.3717504000000003 4.968825290267027 7.8627570566756635 4.64688 8.048632256675663 S-4.324934709732971 8.234507456675663 -4.646879999999998 8.048632256675663 S-9.293759999999999 0.3717504000000015 -9.293759999999999 1.1381573436043704e-15 S-4.968825290267031 -7.862757056675662 -4.646880000000004 -8.048632256675662 S4.3249347097329665 -8.234507456675667 4.646879999999993 -8.048632256675667 S9.293759999999999 -0.3717504000000026 9.293759999999999 -2.2763146872087408e-15"
                fill="#00ffff" stroke-width="0">
                <animateTransform attributeName="transform" type="rotate" dur="3.3333333333333335s"
                    repeatCount="indefinite" values="0;120"></animateTransform>
            </path>
        </g>
    </g>
</svg>